<svg width="170" height="48" viewBox="0 0 170 48" fill="none" xmlns="http://www.w3.org/2000/svg">
<path d="M1.39435 20V7.40167H4.72437V9.62442H4.87201C5.13447 8.88624 5.57192 8.3039 6.18434 7.87739C6.79675 7.45088 7.52947 7.23763 8.38248 7.23763C9.24643 7.23763 9.98188 7.45362 10.5888 7.88559C11.1958 8.3121 11.6004 8.89171 11.8027 9.62442H11.934C12.191 8.90265 12.6557 8.32577 13.3283 7.89379C14.0063 7.45635 14.8074 7.23763 15.7315 7.23763C16.9071 7.23763 17.8613 7.61219 18.594 8.36131C19.3322 9.10496 19.7013 10.1603 19.7013 11.5273V20H16.2154V12.2163C16.2154 11.5164 16.0295 10.9914 15.6577 10.6415C15.2859 10.2915 14.8211 10.1165 14.2633 10.1165C13.629 10.1165 13.1342 10.3189 12.7788 10.7235C12.4234 11.1227 12.2456 11.6503 12.2456 12.3065V20H8.8582V12.1424C8.8582 11.5246 8.68049 11.0324 8.32507 10.6661C7.97511 10.2997 7.51307 10.1165 6.93892 10.1165C6.55069 10.1165 6.20074 10.215 5.88906 10.4118C5.58285 10.6032 5.33953 10.8739 5.15908 11.2238C4.97864 11.5683 4.88841 11.9729 4.88841 12.4377V20H1.39435ZM22.4613 20V7.40167H25.9553V20H22.4613ZM24.2165 5.77767C23.697 5.77767 23.2514 5.60543 22.8796 5.26094C22.5132 4.91099 22.33 4.49268 22.33 4.00603C22.33 3.52484 22.5132 3.11201 22.8796 2.76752C23.2514 2.41757 23.697 2.24259 24.2165 2.24259C24.736 2.24259 25.1789 2.41757 25.5452 2.76752C25.9171 3.11201 26.103 3.52484 26.103 4.00603C26.103 4.49268 25.9171 4.91099 25.5452 5.26094C25.1789 5.60543 24.736 5.77767 24.2165 5.77767ZM28.7543 20V7.40167H32.1417V9.59982H32.273C32.5026 8.81789 32.8881 8.22734 33.4294 7.82818C33.9708 7.42354 34.5941 7.22123 35.2995 7.22123C35.4745 7.22123 35.6631 7.23216 35.8655 7.25404C36.0678 7.27591 36.2455 7.30598 36.3986 7.34426V10.4446C36.2345 10.3954 36.0076 10.3517 35.7178 10.3134C35.428 10.2751 35.1628 10.256 34.9222 10.256C34.4082 10.256 33.9489 10.3681 33.5443 10.5923C33.1451 10.811 32.828 11.1172 32.5928 11.5109C32.3632 11.9046 32.2484 12.3584 32.2484 12.8724V20H28.7543ZM43.3601 20.2461C42.0641 20.2461 40.9487 19.9836 40.0136 19.4587C39.0841 18.9283 38.3678 18.1791 37.8647 17.2113C37.3616 16.238 37.1101 15.087 37.1101 13.7583C37.1101 12.4623 37.3616 11.325 37.8647 10.3462C38.3678 9.36743 39.0759 8.60464 39.989 8.05783C40.9077 7.51103 41.9849 7.23763 43.2206 7.23763C44.0518 7.23763 44.8255 7.3716 45.5418 7.63953C46.2636 7.902 46.8924 8.29843 47.4283 8.82883C47.9696 9.35923 48.3906 10.0263 48.6914 10.8301C48.9921 11.6285 49.1425 12.5635 49.1425 13.6352V14.5949H38.5045V12.4295H45.8535C45.8535 11.9265 45.7441 11.4808 45.5254 11.0926C45.3067 10.7044 45.0032 10.4009 44.615 10.1822C44.2322 9.95797 43.7866 9.84588 43.278 9.84588C42.7476 9.84588 42.2774 9.96891 41.8673 10.215C41.4627 10.4556 41.1455 10.7809 40.9159 11.191C40.6862 11.5956 40.5686 12.0468 40.5632 12.5443V14.6031C40.5632 15.2264 40.678 15.765 40.9077 16.2189C41.1428 16.6727 41.4736 17.0227 41.9001 17.2687C42.3266 17.5148 42.8324 17.6378 43.4175 17.6378C43.8057 17.6378 44.1611 17.5831 44.4837 17.4738C44.8064 17.3644 45.0825 17.2004 45.3121 16.9817C45.5418 16.7629 45.7168 16.495 45.8371 16.1779L49.0687 16.3911C48.9046 17.1676 48.5684 17.8456 48.0598 18.4252C47.5568 18.9994 46.9061 19.4477 46.1077 19.7703C45.3149 20.0875 44.399 20.2461 43.3601 20.2461ZM55.0152 20.2379C54.2114 20.2379 53.495 20.0984 52.8662 19.8196C52.2374 19.5352 51.7398 19.1169 51.3735 18.5646C51.0126 18.0069 50.8321 17.3125 50.8321 16.4813C50.8321 15.7814 50.9606 15.1936 51.2176 14.7179C51.4746 14.2422 51.8246 13.8594 52.2675 13.5696C52.7104 13.2798 53.2134 13.0611 53.7766 12.9134C54.3453 12.7658 54.9413 12.6619 55.5647 12.6018C56.2974 12.5252 56.888 12.4541 57.3363 12.3885C57.7847 12.3174 58.1101 12.2135 58.3124 12.0768C58.5147 11.9401 58.6158 11.7378 58.6158 11.4699V11.4207C58.6158 10.9012 58.4518 10.4993 58.1237 10.215C57.8011 9.93063 57.3418 9.78846 56.7458 9.78846C56.117 9.78846 55.6166 9.9279 55.2448 10.2068C54.873 10.4802 54.6269 10.8247 54.5066 11.2402L51.275 10.9778C51.4391 10.2122 51.7617 9.55061 52.2429 8.99287C52.7241 8.42966 53.3447 7.99769 54.1047 7.69695C54.8703 7.39074 55.7561 7.23763 56.7622 7.23763C57.4621 7.23763 58.1319 7.31965 58.7717 7.48369C59.4169 7.64773 59.9883 7.902 60.4859 8.24648C60.989 8.59097 61.3854 9.03388 61.6752 9.57521C61.965 10.1111 62.1099 10.7536 62.1099 11.5027V20H58.7963V18.253H58.6979C58.4956 18.6467 58.2249 18.9939 57.8859 19.2946C57.5468 19.5899 57.1395 19.8223 56.6638 19.9918C56.188 20.1558 55.6385 20.2379 55.0152 20.2379ZM56.0158 17.8265C56.5298 17.8265 56.9836 17.7253 57.3773 17.523C57.771 17.3152 58.08 17.0363 58.3042 16.6864C58.5284 16.3364 58.6405 15.94 58.6405 15.4971V14.1602C58.5311 14.2312 58.3807 14.2969 58.1893 14.357C58.0034 14.4117 57.7929 14.4636 57.5578 14.5128C57.3227 14.5566 57.0875 14.5976 56.8524 14.6359C56.6173 14.6687 56.404 14.6988 56.2127 14.7261C55.8026 14.7862 55.4444 14.8819 55.1382 15.0132C54.832 15.1444 54.5941 15.3221 54.4246 15.5463C54.2551 15.765 54.1703 16.0384 54.1703 16.3665C54.1703 16.8422 54.3426 17.2058 54.6871 17.4574C55.037 17.7034 55.4799 17.8265 56.0158 17.8265ZM72.67 11.7159V14.4882H65.0093V11.7159H72.67ZM28.4693 43.2461C27.1788 43.2461 26.0688 42.9727 25.1392 42.4259C24.2151 41.8736 23.5043 41.1081 23.0067 40.1293C22.5146 39.1505 22.2685 38.0241 22.2685 36.75C22.2685 35.4596 22.5173 34.3277 23.0149 33.3544C23.518 32.3756 24.2315 31.6128 25.1556 31.066C26.0797 30.5138 27.1788 30.2376 28.4529 30.2376C29.5519 30.2376 30.5143 30.4372 31.34 30.8364C32.1657 31.2355 32.8191 31.796 33.3003 32.5178C33.7815 33.2396 34.0467 34.0871 34.0959 35.0604H30.7986C30.7057 34.4316 30.4596 33.9258 30.0605 33.5431C29.6668 33.1548 29.15 32.9607 28.5103 32.9607C27.9689 32.9607 27.496 33.1083 27.0913 33.4036C26.6922 33.6934 26.3805 34.1172 26.1563 34.6749C25.9321 35.2327 25.82 35.908 25.82 36.7008C25.82 37.5046 25.9294 38.1881 26.1481 38.7513C26.3723 39.3146 26.6867 39.7438 27.0913 40.0391C27.496 40.3343 27.9689 40.482 28.5103 40.482C28.9094 40.482 29.2676 40.4 29.5847 40.2359C29.9074 40.0719 30.1726 39.834 30.3803 39.5223C30.5936 39.2052 30.733 38.8252 30.7986 38.3823H34.0959C34.0412 39.3446 33.7787 40.1922 33.3085 40.9249C32.8437 41.6521 32.2012 42.2208 31.381 42.6309C30.5608 43.041 29.5902 43.2461 28.4693 43.2461ZM42.0252 43.2461C40.7511 43.2461 39.6493 42.9754 38.7198 42.4341C37.7957 41.8873 37.0821 41.1272 36.579 40.1539C36.076 39.1751 35.8244 38.0405 35.8244 36.75C35.8244 35.4487 36.076 34.3113 36.579 33.338C37.0821 32.3592 37.7957 31.5992 38.7198 31.0578C39.6493 30.511 40.7511 30.2376 42.0252 30.2376C43.2992 30.2376 44.3983 30.511 45.3224 31.0578C46.252 31.5992 46.9683 32.3592 47.4713 33.338C47.9744 34.3113 48.2259 35.4487 48.2259 36.75C48.2259 38.0405 47.9744 39.1751 47.4713 40.1539C46.9683 41.1272 46.252 41.8873 45.3224 42.4341C44.3983 42.9754 43.2992 43.2461 42.0252 43.2461ZM42.0416 40.5394C42.6212 40.5394 43.1051 40.3753 43.4933 40.0473C43.8816 39.7137 44.1741 39.2599 44.371 38.6857C44.5733 38.1116 44.6744 37.4582 44.6744 36.7254C44.6744 35.9927 44.5733 35.3393 44.371 34.7652C44.1741 34.191 43.8816 33.7372 43.4933 33.4036C43.1051 33.0701 42.6212 32.9033 42.0416 32.9033C41.4565 32.9033 40.9644 33.0701 40.5652 33.4036C40.1715 33.7372 39.8735 34.191 39.6712 34.7652C39.4743 35.3393 39.3759 35.9927 39.3759 36.7254C39.3759 37.4582 39.4743 38.1116 39.6712 38.6857C39.8735 39.2599 40.1715 39.7137 40.5652 40.0473C40.9644 40.3753 41.4565 40.5394 42.0416 40.5394ZM50.4979 43V30.4017H53.8279V32.6244H53.9755C54.238 31.8862 54.6755 31.3039 55.2879 30.8774C55.9003 30.4509 56.633 30.2376 57.486 30.2376C58.35 30.2376 59.0854 30.4536 59.6924 30.8856C60.2993 31.3121 60.704 31.8917 60.9063 32.6244H61.0375C61.2945 31.9026 61.7593 31.3258 62.4318 30.8938C63.1099 30.4564 63.9109 30.2376 64.835 30.2376C66.0107 30.2376 66.9648 30.6122 67.6976 31.3613C68.4357 32.105 68.8048 33.1603 68.8048 34.5273V43H65.319V35.2163C65.319 34.5164 65.1331 33.9914 64.7612 33.6415C64.3894 33.2915 63.9246 33.1165 63.3669 33.1165C62.7326 33.1165 62.2377 33.3189 61.8823 33.7235C61.5269 34.1227 61.3492 34.6503 61.3492 35.3065V43H57.9617V35.1424C57.9617 34.5246 57.784 34.0324 57.4286 33.6661C57.0787 33.2997 56.6166 33.1165 56.0425 33.1165C55.6542 33.1165 55.3043 33.215 54.9926 33.4118C54.6864 33.6032 54.4431 33.8739 54.2626 34.2238C54.0822 34.5683 53.992 34.9729 53.992 35.4377V43H50.4979ZM71.5648 47.7244V30.4017H75.0097V32.5178H75.1655C75.3186 32.1788 75.5401 31.8343 75.8299 31.4843C76.1251 31.1289 76.5079 30.8336 76.9782 30.5985C77.4539 30.3579 78.0444 30.2376 78.7498 30.2376C79.6684 30.2376 80.516 30.4782 81.2924 30.9594C82.0689 31.4351 82.6895 32.1542 83.1543 33.1165C83.6191 34.0735 83.8515 35.2737 83.8515 36.7172C83.8515 38.1225 83.6245 39.3091 83.1707 40.2769C82.7223 41.2393 82.1099 41.9693 81.3334 42.4669C80.5625 42.959 79.6985 43.2051 78.7416 43.2051C78.0636 43.2051 77.4867 43.093 77.011 42.8688C76.5407 42.6446 76.1552 42.363 75.8545 42.024C75.5537 41.6795 75.3241 41.3323 75.1655 40.9823H75.0589V47.7244H71.5648ZM74.9851 36.7008C74.9851 37.45 75.089 38.1034 75.2967 38.6611C75.5045 39.2189 75.8053 39.6536 76.199 39.9652C76.5927 40.2715 77.0711 40.4246 77.6343 40.4246C78.203 40.4246 78.6842 40.2687 79.0779 39.957C79.4716 39.6399 79.7696 39.2025 79.9719 38.6447C80.1797 38.0815 80.2836 37.4336 80.2836 36.7008C80.2836 35.9736 80.1824 35.3338 79.9801 34.7816C79.7778 34.2293 79.4798 33.7973 79.0861 33.4856C78.6924 33.174 78.2085 33.0181 77.6343 33.0181C77.0656 33.0181 76.5845 33.1685 76.1908 33.4692C75.8025 33.77 75.5045 34.1965 75.2967 34.7488C75.089 35.301 74.9851 35.9517 74.9851 36.7008ZM91.9223 43.2461C90.6263 43.2461 89.5109 42.9836 88.5758 42.4587C87.6463 41.9283 86.93 41.1791 86.4269 40.2113C85.9238 39.238 85.6723 38.087 85.6723 36.7583C85.6723 35.4623 85.9238 34.325 86.4269 33.3462C86.93 32.3674 87.6381 31.6046 88.5512 31.0578C89.4699 30.511 90.5471 30.2376 91.7828 30.2376C92.614 30.2376 93.3877 30.3716 94.104 30.6395C94.8258 30.902 95.4546 31.2984 95.9905 31.8288C96.5318 32.3592 96.9529 33.0263 97.2536 33.8301C97.5543 34.6285 97.7047 35.5635 97.7047 36.6352V37.5949H87.0667V35.4295H94.4157C94.4157 34.9265 94.3063 34.4808 94.0876 34.0926C93.8689 33.7044 93.5654 33.4009 93.1772 33.1822C92.7944 32.958 92.3488 32.8459 91.8403 32.8459C91.3099 32.8459 90.8396 32.9689 90.4295 33.215C90.0249 33.4556 89.7077 33.7809 89.4781 34.191C89.2484 34.5956 89.1308 35.0468 89.1254 35.5443V37.6031C89.1254 38.2264 89.2402 38.765 89.4699 39.2189C89.705 39.6727 90.0358 40.0227 90.4623 40.2687C90.8888 40.5148 91.3946 40.6378 91.9797 40.6378C92.3679 40.6378 92.7233 40.5831 93.0459 40.4738C93.3686 40.3644 93.6447 40.2004 93.8744 39.9817C94.104 39.7629 94.279 39.495 94.3993 39.1779L97.6309 39.3911C97.4668 40.1676 97.1306 40.8456 96.622 41.4252C96.119 41.9994 95.4683 42.4477 94.67 42.7703C93.8771 43.0875 92.9612 43.2461 91.9223 43.2461ZM103.479 35.7166V43H99.9849V30.4017H103.315V32.6244H103.463C103.741 31.8917 104.209 31.3121 104.865 30.8856C105.521 30.4536 106.317 30.2376 107.252 30.2376C108.127 30.2376 108.89 30.429 109.54 30.8118C110.191 31.1945 110.697 31.7413 111.058 32.4522C111.419 33.1576 111.599 33.9996 111.599 34.9784V43H108.105V35.6018C108.11 34.8308 107.914 34.2293 107.514 33.7973C107.115 33.3599 106.566 33.1412 105.866 33.1412C105.395 33.1412 104.98 33.2423 104.619 33.4446C104.264 33.6469 103.985 33.9422 103.782 34.3304C103.586 34.7132 103.484 35.1753 103.479 35.7166ZM118.995 43.2051C118.038 43.2051 117.172 42.959 116.395 42.4669C115.624 41.9693 115.012 41.2393 114.558 40.2769C114.109 39.3091 113.885 38.1225 113.885 36.7172C113.885 35.2737 114.118 34.0735 114.582 33.1165C115.047 32.1542 115.665 31.4351 116.436 30.9594C117.213 30.4782 118.063 30.2376 118.987 30.2376C119.692 30.2376 120.28 30.3579 120.75 30.5985C121.226 30.8336 121.609 31.1289 121.899 31.4843C122.194 31.8343 122.418 32.1788 122.571 32.5178H122.678V26.2022H126.164V43H122.719V40.9823H122.571C122.407 41.3323 122.175 41.6795 121.874 42.024C121.579 42.363 121.193 42.6446 120.718 42.8688C120.247 43.093 119.673 43.2051 118.995 43.2051ZM120.102 40.4246C120.666 40.4246 121.141 40.2715 121.53 39.9652C121.923 39.6536 122.224 39.2189 122.432 38.6611C122.645 38.1034 122.752 37.45 122.752 36.7008C122.752 35.9517 122.648 35.301 122.44 34.7488C122.232 34.1965 121.931 33.77 121.538 33.4692C121.144 33.1685 120.666 33.0181 120.102 33.0181C119.528 33.0181 119.044 33.174 118.651 33.4856C118.257 33.7973 117.959 34.2293 117.757 34.7816C117.554 35.3338 117.453 35.9736 117.453 36.7008C117.453 37.4336 117.554 38.0815 117.757 38.6447C117.964 39.2025 118.262 39.6399 118.651 39.957C119.044 40.2687 119.528 40.4246 120.102 40.4246ZM129.036 43V30.4017H132.531V43H129.036ZM130.792 28.7777C130.272 28.7777 129.827 28.6054 129.455 28.2609C129.088 27.911 128.905 27.4927 128.905 27.006C128.905 26.5248 129.088 26.112 129.455 25.7675C129.827 25.4176 130.272 25.2426 130.792 25.2426C131.311 25.2426 131.754 25.4176 132.12 25.7675C132.492 26.112 132.678 26.5248 132.678 27.006C132.678 27.4927 132.492 27.911 132.12 28.2609C131.754 28.6054 131.311 28.7777 130.792 28.7777ZM143.409 37.6359V30.4017H146.903V43H143.548V40.7116H143.417C143.132 41.4498 142.659 42.0431 141.998 42.4915C141.342 42.9399 140.541 43.164 139.595 43.164C138.752 43.164 138.012 42.9727 137.372 42.5899C136.732 42.2071 136.232 41.6631 135.871 40.9577C135.515 40.2523 135.335 39.4075 135.329 38.4233V30.4017H138.824V37.7999C138.829 38.5436 139.029 39.1314 139.422 39.5633C139.816 39.9953 140.344 40.2113 141.005 40.2113C141.426 40.2113 141.82 40.1156 142.186 39.9242C142.553 39.7274 142.848 39.4376 143.072 39.0548C143.302 38.6721 143.414 38.1991 143.409 37.6359ZM149.697 43V30.4017H153.027V32.6244H153.175C153.438 31.8862 153.875 31.3039 154.487 30.8774C155.1 30.4509 155.833 30.2376 156.686 30.2376C157.549 30.2376 158.285 30.4536 158.892 30.8856C159.499 31.3121 159.903 31.8917 160.106 32.6244H160.237C160.494 31.9026 160.959 31.3258 161.631 30.8938C162.309 30.4564 163.11 30.2376 164.035 30.2376C165.21 30.2376 166.164 30.6122 166.897 31.3613C167.635 32.105 168.004 33.1603 168.004 34.5273V43H164.518V35.2163C164.518 34.5164 164.333 33.9914 163.961 33.6415C163.589 33.2915 163.124 33.1165 162.566 33.1165C161.932 33.1165 161.437 33.3189 161.082 33.7235C160.726 34.1227 160.549 34.6503 160.549 35.3065V43H157.161V35.1424C157.161 34.5246 156.984 34.0324 156.628 33.6661C156.278 33.2997 155.816 33.1165 155.242 33.1165C154.854 33.1165 154.504 33.215 154.192 33.4118C153.886 33.6032 153.643 33.8739 153.462 34.2238C153.282 34.5683 153.191 34.9729 153.191 35.4377V43H149.697Z" fill="#023047"/>
<circle cx="7.98464" cy="37.0462" r="7.98464" fill="url(#paint0_linear_357_502)"/>
<defs>
<linearGradient id="paint0_linear_357_502" x1="-2.99424" y1="29.0615" x2="15.9693" y2="45.0308" gradientUnits="userSpaceOnUse">
<stop stop-color="#A44600"/>
<stop offset="0.258333" stop-color="#FF6D00"/>
<stop offset="0.513542" stop-color="#FC9141"/>
<stop offset="0.794792" stop-color="#FEC12D"/>
<stop offset="0.9999" stop-color="#FCD732"/>
<stop offset="1" stop-color="#FCDF30"/>
</linearGradient>
</defs>
</svg>
