<svg width="24" height="24" viewBox="0 0 24 24" fill="none" xmlns="http://www.w3.org/2000/svg">
<path d="M16.1637 18.5102L16.8176 18.1429L16.1637 18.5102ZM15.5781 19.9582L15.3634 19.2395L15.5781 19.9582ZM15.4389 6.249L15.9603 6.7881L15.4389 6.249ZM16.1637 5.48976L16.8176 5.85708L16.1637 5.48976ZM15.5781 4.04183L15.3634 4.76046L15.5781 4.04183ZM13.75 12C13.75 9.95408 14.5965 8.10717 15.9603 6.7881L14.9175 5.7099C13.2735 7.29988 12.25 9.53106 12.25 12H13.75ZM15.9603 17.2119C14.5965 15.8928 13.75 14.0459 13.75 12H12.25C12.25 14.4689 13.2735 16.7001 14.9175 18.2901L15.9603 17.2119ZM15 19.25C10.9959 19.25 7.75 16.0041 7.75 12H6.25C6.25 16.8325 10.1675 20.75 15 20.75V19.25ZM7.75 12C7.75 7.99594 10.9959 4.75 15 4.75V3.25C10.1675 3.25 6.25 7.16751 6.25 12H7.75ZM14.9175 18.2901C15.139 18.5043 15.2922 18.6526 15.3999 18.7635C15.5231 18.8902 15.5283 18.9104 15.5098 18.8776L16.8176 18.1429C16.7275 17.9826 16.5881 17.8338 16.4756 17.7181C16.3477 17.5865 16.1743 17.4189 15.9603 17.2119L14.9175 18.2901ZM15 20.75C15.2501 20.75 15.5238 20.7571 15.7927 20.6768L15.3634 19.2395C15.3632 19.2396 15.3628 19.2397 15.3619 19.2399C15.3609 19.2401 15.3587 19.2406 15.3548 19.2412C15.3467 19.2425 15.331 19.2444 15.3028 19.246C15.2388 19.2497 15.1542 19.25 15 19.25V20.75ZM15.5098 18.8776C15.5882 19.0171 15.5168 19.1937 15.3634 19.2395L15.7927 20.6768C16.8673 20.3558 17.3668 19.1207 16.8176 18.1429L15.5098 18.8776ZM15.9603 6.7881C16.1743 6.58112 16.3477 6.41352 16.4756 6.28193C16.5881 6.16618 16.7275 6.01739 16.8176 5.85708L15.5098 5.12244C15.5283 5.08956 15.5231 5.10979 15.3999 5.2365C15.2922 5.34738 15.139 5.49568 14.9175 5.7099L15.9603 6.7881ZM15 4.75C15.1542 4.75 15.2388 4.75028 15.3028 4.75398C15.331 4.75561 15.3467 4.75753 15.3548 4.75879C15.3587 4.7594 15.3609 4.75986 15.3619 4.76007C15.3628 4.76027 15.3632 4.76039 15.3634 4.76046L15.7927 3.3232C15.5238 3.24287 15.2501 3.25 15 3.25V4.75ZM16.8176 5.85708C17.3668 4.87933 16.8673 3.64417 15.7927 3.3232L15.3634 4.76046C15.5168 4.80627 15.5882 4.98289 15.5098 5.12244L16.8176 5.85708Z" fill="white"/>
</svg>
