<svg width="316" height="278" viewBox="0 0 316 278" fill="none" xmlns="http://www.w3.org/2000/svg">
    <path d="M207.5 88C216 108.5 231.3 179.5 216.5 277.5H315.5L207.5 88Z" fill="#EFA05D" />
    <path d="M216.5 277.5C231.3 179.5 216 108.5 207.5 88L157.5 0.5L148 17.5C157.665 33.2254 167.668 58.7393 174.321 88.5C181.178 119.177 185.007 154.367 182.859 188C180.731 221.332 172.734 253.135 156 277.5H216.5Z" fill="#EFC35A" />
    <path d="M174.321 88.5C167.668 58.7393 157.665 33.2254 148 17.5L108.5 88.5C113.629 102.168 124.333 118.994 138.5 119.83C148.863 120.441 161.079 112.496 174.321 88.5Z" fill="#F6EC14" />
    <path d="M138.5 119.83C124.333 118.994 113.629 102.168 108.5 88.5L81 136C86.4047 165.122 102.387 206.705 131 212.167C137 196.701 138.5 144.165 138.5 119.83Z" fill="#EFEF8B" />
    <path d="M182.859 188C185.007 154.367 181.178 119.177 174.321 88.5C161.079 112.496 148.863 120.441 138.5 119.83C138.5 144.165 137 196.701 131 212.167C145.126 214.864 162.33 208.757 182.859 188Z" fill="#FCF46E" />
    <path d="M156 277.5C172.734 253.135 180.731 221.332 182.859 188C162.33 208.757 145.126 214.864 131 212.167C102.387 206.705 86.4047 165.122 81 136L0 277L156 277.5Z" fill="url(#paint0_linear_87_36)" />
    <defs>
        <linearGradient id="paint0_linear_87_36" x1="5.70905e-06" y1="278.001" x2="206.589" y2="202.684" gradientUnits="userSpaceOnUse">
            <stop stop-color="white" />
            <stop offset="1" stop-color="#F7F6BD" />
        </linearGradient>
    </defs>
</svg>
    